<?xml version="1.0" standalone="no"?>
<!DOCTYPE svg PUBLIC "-//W3C//DTD SVG 20010904//EN"
 "http://www.w3.org/TR/2001/REC-SVG-20010904/DTD/svg10.dtd">
<svg version="1.0" xmlns="http://www.w3.org/2000/svg"
 width="600.000000pt" height="600.000000pt" viewBox="0 0 600.000000 600.000000"
 preserveAspectRatio="xMidYMid meet">
<metadata>
Created by potrace 1.11, written by Peter Selinger 2001-2013
</metadata>
<g transform="translate(0.000000,600.000000) scale(0.100000,-0.100000)"
fill="#000000" stroke="none">
<path d="M0 5759 c0 -224 1 -240 18 -235 59 19 329 79 447 100 605 108 1134
110 1656 5 471 -94 946 -301 1307 -568 48 -36 121 -89 162 -119 338 -242 732
-728 961 -1185 77 -152 126 -268 175 -412 235 -684 208 -1347 -83 -2015 -136
-313 -310 -595 -652 -1054 -86 -116 -167 -226 -179 -244 l-23 -32 1105 0 1106
0 0 3000 0 3000 -3000 0 -3000 0 0 -241z"/>
<path d="M1015 5669 c-272 -21 -610 -76 -860 -140 -156 -40 -153 -41 30 -9
250 43 391 54 680 54 317 0 463 -13 740 -69 709 -142 1399 -479 1990 -974 50
-41 165 -150 257 -241 93 -92 168 -165 168 -163 0 20 -163 319 -282 518 -163
273 -176 288 -335 402 -474 338 -988 532 -1616 609 -148 18 -605 26 -772 13z"/>
<path d="M585 5544 c-161 -16 -256 -27 -360 -44 -185 -30 -225 -40 -225 -57 0
-13 9 -14 53 -9 500 62 1002 14 1478 -140 733 -237 1493 -675 2149 -1238 125
-107 460 -438 460 -455 0 -25 -24 -5 -156 130 -621 632 -1431 1157 -2274 1473
-269 101 -589 179 -865 211 -223 26 -636 20 -812 -11 -23 -4 -33 -12 -33 -24
0 -16 20 -18 253 -23 213 -4 275 -9 402 -31 361 -63 673 -174 1100 -391 556
-282 1148 -659 1674 -1067 158 -123 167 -128 213 -128 143 0 283 -121 318
-273 8 -36 22 -57 70 -103 33 -31 60 -61 60 -66 0 -19 -28 -5 -72 39 l-47 46
-6 -29 c-13 -60 -38 -117 -70 -159 l-33 -43 86 -68 c80 -64 107 -94 85 -94 -5
0 -49 32 -97 70 -49 39 -92 70 -96 70 -4 0 -27 -11 -51 -24 -86 -48 -222 -50
-311 -5 -62 32 -125 96 -154 158 -22 44 -28 71 -28 131 -1 41 3 91 7 111 l9
37 -194 139 c-731 527 -1535 1041 -1958 1252 -390 194 -700 285 -1082 316
l-78 7 0 -39 0 -38 114 -23 c366 -71 696 -220 1131 -508 77 -51 675 -471 1330
-934 l1190 -841 55 6 c120 12 214 66 274 158 126 191 124 574 -4 922 -30 81
-50 105 -224 283 -692 705 -1567 1148 -2541 1288 -105 15 -639 28 -740 18z"/>
<path d="M32 5334 c-28 -5 -32 -9 -32 -35 0 -29 0 -29 59 -29 33 0 113 -7 178
-15 421 -55 819 -212 1348 -530 474 -285 1138 -726 1598 -1062 70 -51 132 -94
136 -96 5 -1 23 17 39 40 34 45 96 91 156 115 l39 15 -69 55 c-452 358 -1012
728 -1528 1008 -694 377 -1158 523 -1701 534 -104 2 -205 2 -223 0z"/>
<path d="M0 5098 l0 -45 133 -44 c173 -57 442 -192 632 -316 174 -115 310
-217 670 -503 567 -450 1103 -847 1525 -1132 l115 -78 130 -19 c72 -11 193
-33 270 -49 77 -17 163 -33 190 -37 44 -6 48 -5 35 8 -18 16 -2224 1573 -2413
1701 -288 197 -576 353 -808 438 -133 49 -338 104 -426 114 l-53 7 0 -45z"/>
<path d="M0 4958 l0 -63 70 -29 c145 -59 397 -213 580 -354 138 -107 290 -236
555 -472 424 -378 652 -566 1040 -856 l233 -174 124 0 c68 0 184 -5 257 -11
73 -6 135 -8 137 -6 2 2 -53 44 -123 92 -486 337 -918 658 -1443 1075 -585
464 -791 604 -1095 742 -82 37 -305 118 -326 118 -5 0 -9 -28 -9 -62z"/>
<path d="M0 4796 l0 -73 85 -52 c239 -147 457 -335 930 -801 365 -360 518
-501 770 -710 234 -195 207 -180 295 -170 41 5 137 12 212 15 l137 8 -207 155
c-374 280 -615 479 -1053 868 -469 417 -653 559 -919 709 -52 30 -130 70 -172
89 l-78 35 0 -73z"/>
<path d="M0 4602 l0 -90 94 -76 c215 -173 363 -320 847 -846 221 -240 475
-494 614 -616 l70 -61 49 13 c27 7 92 20 145 29 53 9 106 18 119 21 19 4 6 18
-95 101 -301 247 -472 403 -888 813 -471 465 -651 618 -917 779 l-38 23 0 -90z"/>
<path d="M0 4367 l0 -102 106 -105 c146 -145 290 -307 574 -645 314 -374 430
-502 642 -711 559 -550 1229 -1022 1943 -1370 132 -64 173 -80 183 -71 44 36
156 210 141 219 -2 2 -80 41 -174 88 -560 280 -1162 678 -1666 1101 -64 54
-129 101 -143 105 -16 4 -25 12 -22 19 2 7 -54 67 -132 138 -175 160 -331 320
-611 627 -277 303 -582 608 -723 723 -58 48 -109 87 -112 87 -3 0 -6 -46 -6
-103z"/>
<path d="M0 4102 l0 -120 76 -88 c102 -119 263 -322 469 -589 349 -454 498
-627 766 -890 303 -296 597 -534 969 -782 199 -133 559 -340 761 -438 l55 -27
100 39 c92 36 214 106 214 121 0 4 -85 48 -188 99 -742 363 -1464 885 -2027
1465 -150 154 -264 284 -657 748 -203 242 -427 487 -500 550 l-38 32 0 -120z"/>
<path d="M0 3795 l0 -137 108 -147 c60 -80 182 -249 272 -376 369 -518 531
-719 808 -999 390 -393 792 -704 1275 -986 l109 -63 104 7 c57 4 130 11 161
17 109 19 203 41 203 48 0 3 -73 44 -162 91 -746 393 -1396 899 -1914 1490
-124 142 -200 237 -484 605 -216 280 -432 548 -464 575 -14 11 -16 -2 -16
-125z"/>
<path d="M0 3454 l0 -160 271 -404 c275 -411 433 -629 579 -800 270 -315 572
-597 908 -848 l113 -84 132 -23 c160 -28 323 -45 430 -45 l80 0 -139 83 c-408
244 -789 537 -1127 866 -307 300 -470 497 -840 1014 -134 188 -281 391 -326
452 l-81 109 0 -160z"/>
<path d="M0 3076 l0 -169 147 -236 c397 -639 575 -874 933 -1231 328 -329 644
-575 1050 -820 165 -99 539 -287 715 -360 126 -52 466 -173 470 -168 6 10 88
227 92 243 4 18 -12 26 -139 69 -202 68 -458 180 -703 305 -200 103 -218 110
-377 150 -393 98 -723 242 -864 378 -54 51 -66 73 -41 73 8 0 72 -16 143 -36
231 -64 356 -95 360 -92 2 3 -27 27 -64 54 -206 151 -521 431 -694 617 -282
303 -409 470 -760 995 -138 208 -254 381 -259 387 -5 5 -9 -63 -9 -159z"/>
<path d="M1710 2839 c364 -316 865 -669 1330 -937 226 -130 548 -295 564 -289
15 6 52 119 64 199 l9 58 -151 81 c-442 240 -856 502 -1260 799 l-164 120
-214 0 -213 -1 35 -30z"/>
<path d="M2185 2845 c70 -58 315 -232 495 -352 303 -202 599 -380 903 -542
l97 -53 0 64 c0 72 -14 161 -36 228 -13 41 -21 49 -92 89 -129 74 -436 267
-653 412 -206 138 -207 138 -285 148 -72 10 -375 31 -434 31 l-25 -1 30 -24z"/>
<path d="M0 2668 l0 -185 145 -242 c305 -509 525 -800 850 -1126 308 -308 702
-609 1075 -822 124 -71 402 -212 513 -259 l79 -34 313 0 313 0 6 23 c10 39 7
43 -51 61 -32 10 -128 44 -213 76 -905 337 -1720 912 -2305 1625 -184 224
-307 401 -565 815 -84 135 -154 247 -156 249 -2 2 -4 -79 -4 -181z"/>
<path d="M2767 2810 c47 -42 819 -530 839 -530 12 0 -61 122 -100 167 -135
158 -307 258 -561 328 -107 29 -190 46 -178 35z"/>
<path d="M0 2226 l0 -197 96 -167 c128 -221 223 -365 359 -547 373 -497 831
-912 1364 -1239 l125 -76 320 0 321 0 -201 99 c-568 279 -1018 602 -1444 1037
-322 328 -525 599 -810 1079 -62 105 -117 194 -122 200 -4 5 -8 -80 -8 -189z"/>
<path d="M0 1770 l0 -204 51 -90 c123 -217 333 -515 509 -721 111 -132 401
-422 520 -521 47 -39 132 -108 190 -153 l105 -81 260 0 260 0 -81 48 c-487
293 -941 695 -1312 1161 -122 152 -287 397 -402 596 -51 88 -95 162 -97 164
-1 2 -3 -87 -3 -199z"/>
<path d="M1 1301 l-1 -204 66 -106 c187 -299 412 -580 672 -838 l154 -153 220
0 219 0 -98 76 c-449 350 -836 783 -1129 1262 -46 75 -88 144 -93 152 -7 10
-10 -55 -10 -189z"/>
<path d="M0 836 l0 -207 71 -105 c95 -139 195 -270 313 -409 l98 -115 186 0
185 0 -169 172 c-250 255 -400 439 -586 722 l-98 149 0 -207z"/>
<path d="M3555 799 c-44 -10 -127 -24 -183 -30 -121 -14 -124 -10 75 -79 l113
-39 11 22 c6 12 27 50 46 85 19 34 31 61 26 61 -4 -1 -44 -10 -88 -20z"/>
<path d="M2460 796 c0 -9 316 -165 455 -226 193 -84 501 -197 510 -188 8 8
115 229 115 237 0 4 -75 35 -167 68 l-168 61 -235 6 c-203 4 -384 20 -482 42
-16 3 -28 3 -28 0z"/>
<path d="M0 377 l0 -205 63 -86 62 -86 165 0 164 0 -40 43 c-92 96 -252 301
-367 471 l-47 68 0 -205z"/>
<path d="M0 60 l0 -60 46 0 45 0 -42 60 c-23 33 -43 60 -45 60 -2 0 -4 -27 -4
-60z"/>
</g>
</svg>
